<svg width="24" height="24" viewBox="0 0 24 24" fill="none" xmlns="http://www.w3.org/2000/svg">
<path d="M6.60078 2.39844C6.12339 2.39844 5.66555 2.58808 5.32799 2.92565C4.99042 3.26321 4.80078 3.72105 4.80078 4.19844V19.7984C4.80078 20.2758 4.99042 20.7337 5.32799 21.0712C5.66555 21.4088 6.12339 21.5984 6.60078 21.5984H12.3092C11.4644 20.5747 10.948 19.3202 10.8272 17.9984H9.00078C8.84165 17.9984 8.68904 17.9352 8.57652 17.8227C8.464 17.7102 8.40078 17.5576 8.40078 17.3984C8.40078 17.2393 8.464 17.0867 8.57652 16.9742C8.68904 16.8617 8.84165 16.7984 9.00078 16.7984H10.8272C10.9673 15.2614 11.6417 13.822 12.733 12.7307C13.8244 11.6393 15.2637 10.9649 16.8008 10.8248V4.19844C16.8008 3.72105 16.6111 3.26321 16.2736 2.92565C15.936 2.58808 15.4782 2.39844 15.0008 2.39844H6.60078ZM22.8008 17.3984C22.8008 18.8306 22.2319 20.2041 21.2192 21.2168C20.2065 22.2295 18.833 22.7984 17.4008 22.7984C15.9686 22.7984 14.5951 22.2295 13.5824 21.2168C12.5697 20.2041 12.0008 18.8306 12.0008 17.3984C12.0008 15.9663 12.5697 14.5928 13.5824 13.5801C14.5951 12.5674 15.9686 11.9984 17.4008 11.9984C18.833 11.9984 20.2065 12.5674 21.2192 13.5801C22.2319 14.5928 22.8008 15.9663 22.8008 17.3984ZM18.0008 14.9984C18.0008 14.8393 17.9376 14.6867 17.825 14.5742C17.7125 14.4617 17.5599 14.3984 17.4008 14.3984C17.2417 14.3984 17.089 14.4617 16.9765 14.5742C16.864 14.6867 16.8008 14.8393 16.8008 14.9984V16.7984H15.0008C14.8417 16.7984 14.689 16.8617 14.5765 16.9742C14.464 17.0867 14.4008 17.2393 14.4008 17.3984C14.4008 17.5576 14.464 17.7102 14.5765 17.8227C14.689 17.9352 14.8417 17.9984 15.0008 17.9984H16.8008V19.7984C16.8008 19.9576 16.864 20.1102 16.9765 20.2227C17.089 20.3352 17.2417 20.3984 17.4008 20.3984C17.5599 20.3984 17.7125 20.3352 17.825 20.2227C17.9376 20.1102 18.0008 19.9576 18.0008 19.7984V17.9984H19.8008C19.9599 17.9984 20.1125 17.9352 20.225 17.8227C20.3376 17.7102 20.4008 17.5576 20.4008 17.3984C20.4008 17.2393 20.3376 17.0867 20.225 16.9742C20.1125 16.8617 19.9599 16.7984 19.8008 16.7984H18.0008V14.9984Z" fill="white"/>
</svg>
