<svg width="24" height="24" viewBox="0 0 24 24" fill="none" xmlns="http://www.w3.org/2000/svg">
<g clip-path="url(#clip0_173_360)">
<path d="M12.0008 0L11.3408 0.03L15.1508 3.84L16.5008 2.5C19.7508 4.07 22.0908 7.24 22.4508 11H23.9508C23.4408 4.84 18.2908 0 12.0008 0ZM12.0008 4C10.0708 4 8.50078 5.57 8.50078 7.5C8.50078 9.43 10.0708 11 12.0008 11C13.9308 11 15.5008 9.43 15.5008 7.5C15.5008 5.57 13.9308 4 12.0008 4ZM0.0507812 13C0.560781 19.16 5.71078 24 12.0008 24L12.6608 23.97L8.85078 20.16L7.50078 21.5C4.25078 19.94 1.91078 16.76 1.55078 13H0.0507812ZM12.0008 13C8.13078 13 5.00078 14.57 5.00078 16.5V18H19.0008V16.5C19.0008 14.57 15.8708 13 12.0008 13Z" fill="white"/>
</g>
<defs>
<clipPath id="clip0_173_360">
<rect width="24" height="24" fill="white"/>
</clipPath>
</defs>
</svg>
