<svg width="28" height="28" viewBox="0 0 28 28" fill="none" xmlns="http://www.w3.org/2000/svg">
<path fill-rule="evenodd" clip-rule="evenodd" d="M11.6654 4.66797H16.332C20.7315 4.66797 22.9319 4.66797 24.298 6.0353C25.6642 7.40264 25.6654 9.6018 25.6654 14.0013C25.6654 18.4008 25.6654 20.6011 24.298 21.9673C22.9307 23.3335 20.7315 23.3346 16.332 23.3346H11.6654C7.26586 23.3346 5.06553 23.3346 3.69936 21.9673C2.3332 20.6 2.33203 18.4008 2.33203 14.0013C2.33203 9.6018 2.33203 7.40147 3.69936 6.0353C5.0667 4.66914 7.26586 4.66797 11.6654 4.66797ZM15.457 10.5013C15.457 10.2692 15.5492 10.0467 15.7133 9.88258C15.8774 9.71849 16.1 9.6263 16.332 9.6263H22.1654C22.3974 9.6263 22.62 9.71849 22.7841 9.88258C22.9482 10.0467 23.0404 10.2692 23.0404 10.5013C23.0404 10.7334 22.9482 10.9559 22.7841 11.12C22.62 11.2841 22.3974 11.3763 22.1654 11.3763H16.332C16.1 11.3763 15.8774 11.2841 15.7133 11.12C15.5492 10.9559 15.457 10.7334 15.457 10.5013ZM16.6237 14.0013C16.6237 13.7692 16.7159 13.5467 16.88 13.3826C17.0441 13.2185 17.2666 13.1263 17.4987 13.1263H22.1654C22.3974 13.1263 22.62 13.2185 22.7841 13.3826C22.9482 13.5467 23.0404 13.7692 23.0404 14.0013C23.0404 14.2334 22.9482 14.4559 22.7841 14.62C22.62 14.7841 22.3974 14.8763 22.1654 14.8763H17.4987C17.2666 14.8763 17.0441 14.7841 16.88 14.62C16.7159 14.4559 16.6237 14.2334 16.6237 14.0013ZM17.7904 17.5013C17.7904 17.2692 17.8826 17.0467 18.0466 16.8826C18.2107 16.7185 18.4333 16.6263 18.6654 16.6263H22.1654C22.3974 16.6263 22.62 16.7185 22.7841 16.8826C22.9482 17.0467 23.0404 17.2692 23.0404 17.5013C23.0404 17.7334 22.9482 17.9559 22.7841 18.12C22.62 18.2841 22.3974 18.3763 22.1654 18.3763H18.6654C18.4333 18.3763 18.2107 18.2841 18.0466 18.12C17.8826 17.9559 17.7904 17.7334 17.7904 17.5013ZM12.832 10.5013C12.832 11.1201 12.5862 11.7136 12.1486 12.1512C11.711 12.5888 11.1175 12.8346 10.4987 12.8346C9.87986 12.8346 9.28637 12.5888 8.84878 12.1512C8.4112 11.7136 8.16537 11.1201 8.16537 10.5013C8.16537 9.88246 8.4112 9.28897 8.84878 8.85139C9.28637 8.4138 9.87986 8.16797 10.4987 8.16797C11.1175 8.16797 11.711 8.4138 12.1486 8.85139C12.5862 9.28897 12.832 9.88246 12.832 10.5013ZM10.4987 19.8346C15.1654 19.8346 15.1654 18.7905 15.1654 17.5013C15.1654 16.2121 13.077 15.168 10.4987 15.168C7.92036 15.168 5.83203 16.2121 5.83203 17.5013C5.83203 18.7905 5.83203 19.8346 10.4987 19.8346Z" fill="white"/>
</svg>
